PathFileType	4	(X/Y/Z)	RBDS012\RBDS012runT25.trc
DataRate	CameraRate	NumFrames	NumMarkers	Units	OrigDataRate	OrigDataStartFrame	OrigNumFrames
150.000000	150.000000	5	33	mm	150.000000	2250	4500
Frame#	Time	L.ASIS			L.Heel.Bottom			L.Heel.Lateral			L.Heel.Top			L.Iliac.Crest			L.MT1			L.MT5			L.PSIS			L.Shank.Bottom.Lateral			L.Shank.Bottom.Medial			L.Shank.Top.Lateral			L.Shank.Top.Medial			L.Thigh.Bottom.Lateral			L.Thigh.Bottom.Medial			L.Thigh.Top.Lateral			L.Thigh.Top.Medial			R.ASIS			R.ASY			R.Heel.Bottom			R.Heel.Lateral			R.Heel.Top			R.Iliac.Crest			R.MT1			R.MT5			R.PSIS			R.Shank.Bottom.Lateral			R.Shank.Bottom.Medial			R.Shank.Top.Lateral			R.Shank.Top.Medial			R.Thigh.Bottom.Lateral			R.Thigh.Bottom.Medial			R.Thigh.Top.Lateral			R.Thigh.Top.Medial			
		X1	Y1	Z1	X2	Y2	Z2	X3	Y3	Z3	X4	Y4	Z4	X5	Y5	Z5	X6	Y6	Z6	X7	Y7	Z7	X8	Y8	Z8	X9	Y9	Z9	X10	Y10	Z10	X11	Y11	Z11	X12	Y12	Z12	X13	Y13	Z13	X14	Y14	Z14	X15	Y15	Z15	X16	Y16	Z16	X17	Y17	Z17	X18	Y18	Z18	X19	Y19	Z19	X20	Y20	Z20	X21	Y21	Z21	X22	Y22	Z22	X23	Y23	Z23	X24	Y24	Z24	X25	Y25	Z25	X26	Y26	Z26	X27	Y27	Z27	X28	Y28	Z28	X29	Y29	Z29	X30	Y30	Z30	X31	Y31	Z31	X32	Y32	Z32	X33	Y33	Z33	

2251	15	2061.111208252672	953.1228889066419	874.3314308992165	1830.859680529656	34.39706911018473	965.9778097196744	1858.75365639187	47.50402214037444	917.7444314068412	1842.992551669063	83.98941488619639	965.8020039083391	2004.084147510885	1018.954928809335	843.0959686629129	2057.194692782673	41.98930135392865	996.3471892167648	2024.882821656885	43.73631414152821	879.6663623371862	1902.704937755643	1006.552164129759	979.0821581363317	1955.240539654596	158.2733470223592	903.2234884174169	1913.442379014522	181.9901296160193	930.6317520395082	1981.945750275338	231.7234868055544	883.2756590019841	1943.372020118426	255.3481195732162	912.3505520904315	2105.007513840321	587.5315218827786	841.1601025725794	2041.813659909702	564.3960449731954	869.7090635971974	2056.994396880062	685.6879794658795	824.1533169112662	1999.286966699908	665.4624436684221	854.994883917661	2081.226702792645	944.4178844766743	1144.775353600502	1699.914625175204	337.7429410700347	1078.035762503222	1616.971828207701	519.6552620918167	1096.900257683471	1635.9094835562	496.6941215727709	1131.624656069539	1667.747900780001	514.7123507565589	1095.653633777948	2039.211547711224	1012.481764870911	1181.197391059084	1659.28796588305	306.731178498748	1026.942231427988	1651.768280610647	320.0251247164241	1145.529104489558	1910.614774415742	996.6276365289084	1080.739084684537	1772.819679878011	453.4519030309481	1141.968367675528	1777.63752412051	497.6218032295315	1115.576639556328	1855.812781078444	456.3801578406455	1159.332108859562	1856.10003340537	503.695306504937	1134.284382171081	2088.868052123065	543.1896902284797	1184.806658689783	2035.153968441229	528.8557690260327	1136.453714852542	2047.436656081462	644.1985473411311	1196.839475880848	1995.558397441125	631.0287598039786	1152.895732967798	
2252	15.00666666666667	2060.396827653286	953.1876187660569	874.1842180085434	1813.850891210695	34.74586507489744	965.9748031531734	1841.762488467874	47.68961858581957	917.6938845500177	1826.11910189687	84.30076606797196	965.6994295191828	2003.345678848936	1019.696349925539	842.6112097285211	2040.141914649142	41.53248619444915	996.5435000288014	2007.902047071511	43.4867319400811	879.8566128765441	1901.918069228305	1007.752935096267	978.2374320623201	1939.598538902135	158.1766012734756	903.3025707746033	1898.020661685759	182.4880149565879	930.5407725182241	1967.360240895691	231.2181592496314	883.3418847875756	1928.991473325235	255.3819747113073	912.2408835413052	2097.056229894395	585.6117900186456	841.0555204061029	2033.114894826362	563.7287383552956	869.0258227482981	2051.241864678818	684.8479865009602	824.0691170931084	1992.901630185376	665.76011596143	854.4763657810257	2079.872175164166	945.3471830512659	1144.478699854638	1715.239807028987	332.5337597497492	1076.329139727694	1626.867070181796	511.6192331314152	1096.135234975749	1646.762023543398	489.3261435668915	1130.648012015268	1677.883206180299	508.1707568736605	1094.504644990712	2037.943074821287	1013.565752278332	1180.971041459021	1675.395920791987	300.3643461144176	1025.47145001381	1668.093712644032	313.1828730578486	1144.10837441992	1909.609659823752	997.6458509554395	1080.019059131037	1784.829086926793	449.6483418071426	1140.662970771766	1788.700931753961	493.9456507353805	1114.473940434014	1867.69757819498	454.4175455921914	1158.282806203541	1866.977456782685	501.7162789420434	1133.23164230829	2098.070965323936	546.5638598646603	1185.34698936459	2044.765161922419	530.5939951632494	1137.090092507945	2053.7668104134	646.343074388257	1197.220297258516	2002.254486989836	631.5573766426941	1153.408393942253	
2253	15.01333333333333	2059.837545482048	953.7068164476967	874.0887481702792	1796.822930823126	35.28373798269132	965.9305429125648	1824.759410950012	48.0225494857721	917.6026165742237	1809.251575968912	84.79580286679702	965.531768161439	2003.026856312913	1020.71202705392	842.2179009928294	2023.05243020558	41.1081814704229	996.7408302280619	1990.891898611432	43.25439296058092	880.043385081364	1901.295265590989	1009.427984265161	977.5100048320692	1923.851908811361	158.3701059003887	903.3625970327271	1882.445656172992	183.2058657624833	930.4280851445708	1952.553704483249	231.0513027013852	883.3996826270571	1914.330508040178	255.6730692177021	912.1199042262494	2088.539653434645	584.1393404049305	841.0764453220863	2023.897402885963	563.6386129354254	868.5624577566856	2045.07266139642	684.4621057625864	824.1062135325316	1986.151647412272	666.6319788618042	854.176155348573	2078.670066965336	946.8554299965469	1144.2995177853	1730.966494968836	326.3340929910835	1074.539749967023	1636.462637336383	502.0225589622906	1095.284611544981	1657.339183662078	480.4553849983574	1129.612136055426	1687.674700983063	500.3168558406397	1093.357030903771	2036.984321240895	1015.074578656363	1180.741058738118	1692.176138269795	292.9775259386582	1023.753553904739	1684.847232303412	305.1042968950879	1142.44639284232	1908.745600552183	999.1864329702291	1079.444738476633	1796.646483584482	445.1109434036798	1139.298157789086	1799.310041018877	489.5334598956965	1113.336560695995	1879.303083737189	452.1848072168583	1157.183381286542	1877.307297932565	499.4324527564965	1132.135242553549	2106.994253609364	550.8370016041624	1185.795045223358	2054.228460568717	533.3225659081035	1137.53256722242	2059.905685692439	649.3137784291139	1197.549304338412	2008.820511810019	632.97658989858	1153.826326342449	
2254	15.02	2059.434417108976	954.6649565244244	874.0022306255584	1779.804873919412	36.09298799772096	965.8431213744107	1807.772848269103	48.57096664347568	917.4690552523663	1792.423317969372	85.55531410940091	965.2845208628531	2003.117951736273	1022.000931423589	841.940760733262	2005.930767138572	40.76239347098434	996.9240152868324	1973.85360680339	43.07510453390456	880.2194193449566	1900.871139748383	1011.546608138526	976.9298884937047	1908.018962239032	158.9156196173028	903.3935166577659	1866.746003692056	184.2105872214606	930.2948145317905	1937.556679103775	231.2851607415231	883.4378040044185	1899.423647069556	256.2920807941338	911.981654070383	2079.471206626979	583.1408284159388	841.2243618105477	2014.200603748803	564.161776325802	868.3634534971457	2038.499286290519	684.5419814958069	824.262085288552	1979.078239102513	668.1001440854469	854.1316567338517	2077.645321202235	948.8867612253193	1144.214362117739	1747.111562482773	319.2284572716209	1072.718269141602	1645.874970797155	490.9252412233554	1094.29627580787	1667.732279373997	470.14874551081	1128.476425175303	1697.209527022262	491.1992521352079	1092.177913526337	2036.281536900442	1016.96760722317	1180.523707284521	1709.652561133382	284.6694017589467	1021.838929330674	1702.050164619022	295.9274671097206	1140.58418553055	1908.040155251085	1001.23883866846	1079.027409665357	1808.294354047221	439.8656108239131	1137.893467118255	1809.5061077944	484.3934337843662	1112.171673526745	1890.618939635754	449.6718412468519	1156.054293584154	1887.101770489986	496.8177451361937	1131.020098506535	2115.536367710559	555.9380475881984	1186.135923117664	2063.425598021155	536.9888610687	1137.766380107152	2065.776207106016	653.0590209647972	1197.809056791822	2015.167930137914	635.2496296291952	1154.128803092161	
2255	15.02666666666667	2059.197714636059	956.0536286305894	873.8883455859849	1762.824481042727	37.26683580698545	965.7173474362058	1790.831242596838	49.40940738268709	917.2975593672446	1775.67171746299	86.66867688867437	964.9481947190206	2003.610832064066	1023.598631953808	841.7975645844883	1988.776977918066	40.52546093950263	997.0830201327308	1956.786259820438	42.97081812206855	880.3849806807899	1900.68148854136	1014.086285117313	976.5007879644921	1892.116636558465	159.8739117110613	903.3849259474983	1850.950880711963	185.5637495218377	930.1446436642053	1922.394186661754	231.9797728401988	883.4478889315847	1884.301848285774	257.30491044518	911.8246449098436	2069.8801971833	582.6443370178882	841.5005860249672	2004.072305985827	565.3328917803726	868.4566757999384	2031.554154067449	685.1030794144638	824.5339600900003	1971.734187080938	670.186707606627	854.3647213910523	2076.824108702183	951.4089921525197	1144.189322714576	1763.702511224463	311.3119647144612	1070.920276644755	1655.243812120094	478.4053037373217	1093.118558328087	1678.05866905055	458.4927960027186	1127.195523642594	1706.598646989775	480.8758613690687	1090.925466343915	2035.783458046301	1019.246724697182	1180.338715200776	1727.850876339527	275.5452919807565	1019.791053164534	1719.73739955887	285.8092708194815	1138.577069344742	1907.518215051047	1003.802330485164	1078.759587796476	1819.813030228904	433.9420904109144	1136.463172137597	1819.354310792627	478.5346129046905	1110.977477655798	1901.650757619967	446.8632326430086	1154.911439994024	1896.395865709238	493.8379076767769	1129.901890124489	2123.612821072863	561.7753730683135	1186.364158733487	2072.246528745922	541.5161682161541	1137.793667948934	2071.317055073352	657.5095307618931	1197.994670101514	2021.220142769471	638.3201244700512	1154.311530544445	
